<?xml version="1.0" encoding="UTF-8"?>
<svg version="1.1" viewBox="0 0 16 16" xmlns="http://www.w3.org/2000/svg">
    <g fill="none" fill-rule="evenodd">
        <rect width="16" height="16" fill="#000" fill-opacity="0" fill-rule="nonzero"/>
        <g stroke="#767676" stroke-linecap="round" stroke-linejoin="round" stroke-width="1.0029">
            <path d="m4.8 8v6c0 0.5 0.4 1 0.9 1h6.2c0.5 0 0.7-0.3 0.9-0.8 0.8-1.8 1.4-3.7 2-5.6 0.8-2.8-1.1-2.8-1.1-2.8h-2.6-0.2c-0.5-0.1-0.8-0.6-0.7-1.1 0.1-0.6 0.2-1.2 0.1-1.8s-0.4-1.1-0.8-1.5-0.9-0.5-1.4-0.4c-0.4 0.1-0.7 0.5-0.7 0.9 0 2.2-0.9 4.3-2.5 5.8-0.1 0.1-0.1 0.2-0.1 0.3z"/>
            <path d="m0.9 8.5v5.5c0 0.6 0.5 1 1 1h1.9c0.6 0 1-0.5 1-1v-5.5c0-0.6-0.5-1-1-1h-1.9c-0.5 0-1 0.5-1 1z"/>
        </g>
    </g>
</svg>
