<svg xmlns="http://www.w3.org/2000/svg" width="14" height="18" viewBox="0 0 14 18">
    <path fill="#000" fill-rule="nonzero" d="M11.744 4.011a.676.676 0 0 1 .118-.79.663.663 0 0 1 .943 0l.666.672c.26.262.26.688 0 .95a.663.663 0 0 1-.784.119l-.279.281a7 7 0 1 1-7.075-2.356V1.4H5c-.368 0-.667-.313-.667-.7 0-.387.299-.7.667-.7h4c.368 0 .667.313.667.7 0 .387-.299.7-.667.7h-.333v1.488a6.978 6.978 0 0 1 2.796 1.407l.281-.284zm-4.41-1.315V1.4h-.667v1.296a7.118 7.118 0 0 1 .666 0zM8.01 4.11a.675.675 0 0 1-.228-.036 5.717 5.717 0 0 0-1.57 0 .661.661 0 0 1-.22.036A5.668 5.668 0 0 0 7 15.355a5.667 5.667 0 0 0 4.12-9.558.67.67 0 0 1-.204-.205 5.651 5.651 0 0 0-2.905-1.48zm-1.2 4.586a.646.646 0 0 1-.914.914L2.989 6.703a.646.646 0 0 1 .914-.914l2.908 2.908z"/>
</svg>
